<svg width="1246" height="1167" viewBox="0 0 1246 1167" fill="none" xmlns="http://www.w3.org/2000/svg">
<ellipse cx="623" cy="583.5" rx="623" ry="583.5" fill="url(#paint0_radial_1340_179)"/>
<path d="M591 95H597.778H652" stroke="#F7685C" stroke-width="5" stroke-linecap="round" stroke-linejoin="round"/>
<path d="M608.071 95.4V88.7C608.071 86.923 608.779 85.2189 610.038 83.9624C611.297 82.7059 613.005 82 614.786 82H628.214C629.995 82 631.703 82.7059 632.962 83.9624C634.221 85.2189 634.929 86.923 634.929 88.7V95.4M645 95.4V142.3C645 144.077 644.293 145.781 643.033 147.038C641.774 148.294 640.066 149 638.286 149H604.714C602.934 149 601.226 148.294 599.967 147.038C598.707 145.781 598 144.077 598 142.3V95.4H645Z" stroke="#F7685C" stroke-width="5" stroke-linecap="round" stroke-linejoin="round"/>
<path d="M615 112V132" stroke="#F7685C" stroke-width="5" stroke-linecap="round" stroke-linejoin="round"/>
<path d="M628 112V132" stroke="#F7685C" stroke-width="5" stroke-linecap="round" stroke-linejoin="round"/>
<path d="M512.348 201.833C512.524 201.849 512.724 201.865 512.948 201.881C513.188 201.881 513.468 201.881 513.788 201.881C515.66 201.881 517.044 201.409 517.94 200.465C518.852 199.521 519.308 198.217 519.308 196.553C519.308 194.809 518.876 193.489 518.012 192.593C517.148 191.697 515.78 191.249 513.908 191.249C513.652 191.249 513.388 191.257 513.116 191.273C512.844 191.273 512.588 191.289 512.348 191.321V201.833ZM523.172 196.553C523.172 197.993 522.948 199.249 522.5 200.321C522.052 201.393 521.412 202.281 520.58 202.985C519.764 203.689 518.764 204.217 517.58 204.569C516.396 204.921 515.068 205.097 513.596 205.097C512.924 205.097 512.14 205.065 511.244 205.001C510.348 204.953 509.468 204.841 508.604 204.665V188.465C509.468 188.305 510.364 188.201 511.292 188.153C512.236 188.089 513.044 188.057 513.716 188.057C515.14 188.057 516.428 188.217 517.58 188.537C518.748 188.857 519.748 189.361 520.58 190.049C521.412 190.737 522.052 191.617 522.5 192.689C522.948 193.761 523.172 195.049 523.172 196.553ZM533.667 195.425C533.347 195.345 532.971 195.265 532.539 195.185C532.107 195.089 531.643 195.041 531.147 195.041C530.923 195.041 530.651 195.065 530.331 195.113C530.027 195.145 529.795 195.185 529.635 195.233V204.881H526.059V192.929C526.699 192.705 527.451 192.497 528.315 192.305C529.195 192.097 530.171 191.993 531.243 191.993C531.435 191.993 531.667 192.009 531.939 192.041C532.211 192.057 532.483 192.089 532.755 192.137C533.027 192.169 533.299 192.217 533.571 192.281C533.843 192.329 534.075 192.393 534.267 192.473L533.667 195.425ZM540.774 202.385C541.126 202.385 541.462 202.377 541.782 202.361C542.102 202.345 542.358 202.321 542.55 202.289V199.577C542.406 199.545 542.19 199.513 541.902 199.481C541.614 199.449 541.35 199.433 541.11 199.433C540.774 199.433 540.454 199.457 540.15 199.505C539.862 199.537 539.606 199.609 539.382 199.721C539.158 199.833 538.982 199.985 538.854 200.177C538.726 200.369 538.662 200.609 538.662 200.897C538.662 201.457 538.846 201.849 539.214 202.073C539.598 202.281 540.118 202.385 540.774 202.385ZM540.486 191.921C541.542 191.921 542.422 192.041 543.126 192.281C543.83 192.521 544.39 192.865 544.806 193.313C545.238 193.761 545.542 194.305 545.718 194.945C545.894 195.585 545.982 196.297 545.982 197.081V204.521C545.47 204.633 544.758 204.761 543.846 204.905C542.934 205.065 541.83 205.145 540.534 205.145C539.718 205.145 538.974 205.073 538.302 204.929C537.646 204.785 537.078 204.553 536.598 204.233C536.118 203.897 535.75 203.465 535.494 202.937C535.238 202.409 535.11 201.761 535.11 200.993C535.11 200.257 535.254 199.633 535.542 199.121C535.846 198.609 536.246 198.201 536.742 197.897C537.238 197.593 537.806 197.377 538.446 197.249C539.086 197.105 539.75 197.033 540.438 197.033C540.902 197.033 541.31 197.057 541.662 197.105C542.03 197.137 542.326 197.185 542.55 197.249V196.913C542.55 196.305 542.366 195.817 541.998 195.449C541.63 195.081 540.99 194.897 540.078 194.897C539.47 194.897 538.87 194.945 538.278 195.041C537.686 195.121 537.174 195.241 536.742 195.401L536.286 192.521C536.494 192.457 536.75 192.393 537.054 192.329C537.374 192.249 537.718 192.185 538.086 192.137C538.454 192.073 538.838 192.025 539.238 191.993C539.654 191.945 540.07 191.921 540.486 191.921ZM552.263 198.161C552.263 200.161 553.071 201.161 554.687 201.161C555.055 201.161 555.399 201.113 555.719 201.017C556.039 200.921 556.311 200.809 556.535 200.681V194.969C556.359 194.937 556.151 194.913 555.911 194.897C555.671 194.865 555.391 194.849 555.071 194.849C554.127 194.849 553.423 195.161 552.959 195.785C552.495 196.409 552.263 197.201 552.263 198.161ZM560.111 203.297C560.111 205.361 559.583 206.889 558.527 207.881C557.487 208.889 555.871 209.393 553.679 209.393C552.911 209.393 552.143 209.321 551.375 209.177C550.607 209.049 549.895 208.873 549.239 208.649L549.863 205.649C550.423 205.873 551.007 206.049 551.615 206.177C552.239 206.305 552.943 206.369 553.727 206.369C554.751 206.369 555.471 206.145 555.887 205.697C556.319 205.249 556.535 204.673 556.535 203.969V203.513C556.151 203.689 555.751 203.825 555.335 203.921C554.935 204.001 554.495 204.041 554.015 204.041C552.271 204.041 550.935 203.529 550.007 202.505C549.079 201.465 548.615 200.017 548.615 198.161C548.615 197.233 548.759 196.393 549.047 195.641C549.335 194.873 549.751 194.217 550.295 193.673C550.855 193.129 551.535 192.713 552.335 192.425C553.135 192.121 554.039 191.969 555.047 191.969C555.479 191.969 555.919 191.993 556.367 192.041C556.831 192.073 557.287 192.121 557.735 192.185C558.183 192.249 558.607 192.329 559.007 192.425C559.423 192.505 559.791 192.593 560.111 192.689V203.297ZM569.111 189.113L572.687 188.537V192.257H576.983V195.233H572.687V199.673C572.687 200.425 572.815 201.025 573.071 201.473C573.343 201.921 573.879 202.145 574.679 202.145C575.063 202.145 575.455 202.113 575.855 202.049C576.271 201.969 576.647 201.865 576.983 201.737L577.487 204.521C577.055 204.697 576.575 204.849 576.047 204.977C575.519 205.105 574.871 205.169 574.103 205.169C573.127 205.169 572.319 205.041 571.679 204.785C571.039 204.513 570.527 204.145 570.143 203.681C569.759 203.201 569.487 202.625 569.327 201.953C569.183 201.281 569.111 200.537 569.111 199.721V189.113ZM591.234 198.545C591.234 199.537 591.09 200.449 590.802 201.281C590.514 202.097 590.098 202.801 589.554 203.393C589.01 203.969 588.354 204.417 587.586 204.737C586.834 205.057 585.986 205.217 585.042 205.217C584.114 205.217 583.266 205.057 582.498 204.737C581.746 204.417 581.098 203.969 580.554 203.393C580.01 202.801 579.586 202.097 579.282 201.281C578.978 200.449 578.826 199.537 578.826 198.545C578.826 197.553 578.978 196.649 579.282 195.833C579.602 195.017 580.034 194.321 580.578 193.745C581.138 193.169 581.794 192.721 582.546 192.401C583.314 192.081 584.146 191.921 585.042 191.921C585.954 191.921 586.786 192.081 587.538 192.401C588.306 192.721 588.962 193.169 589.506 193.745C590.05 194.321 590.474 195.017 590.778 195.833C591.082 196.649 591.234 197.553 591.234 198.545ZM587.586 198.545C587.586 197.441 587.362 196.577 586.914 195.953C586.482 195.313 585.858 194.993 585.042 194.993C584.226 194.993 583.594 195.313 583.146 195.953C582.698 196.577 582.474 197.441 582.474 198.545C582.474 199.649 582.698 200.529 583.146 201.185C583.594 201.825 584.226 202.145 585.042 202.145C585.858 202.145 586.482 201.825 586.914 201.185C587.362 200.529 587.586 199.649 587.586 198.545ZM603.754 201.833C603.93 201.849 604.13 201.865 604.354 201.881C604.594 201.881 604.874 201.881 605.194 201.881C607.066 201.881 608.45 201.409 609.346 200.465C610.258 199.521 610.714 198.217 610.714 196.553C610.714 194.809 610.282 193.489 609.418 192.593C608.554 191.697 607.186 191.249 605.314 191.249C605.058 191.249 604.794 191.257 604.522 191.273C604.25 191.273 603.994 191.289 603.754 191.321V201.833ZM614.578 196.553C614.578 197.993 614.354 199.249 613.906 200.321C613.458 201.393 612.818 202.281 611.986 202.985C611.17 203.689 610.17 204.217 608.986 204.569C607.802 204.921 606.474 205.097 605.002 205.097C604.33 205.097 603.546 205.065 602.65 205.001C601.754 204.953 600.874 204.841 600.01 204.665V188.465C600.874 188.305 601.77 188.201 602.698 188.153C603.642 188.089 604.45 188.057 605.122 188.057C606.546 188.057 607.834 188.217 608.986 188.537C610.154 188.857 611.154 189.361 611.986 190.049C612.818 190.737 613.458 191.617 613.906 192.689C614.354 193.761 614.578 195.049 614.578 196.553ZM616.865 198.665C616.865 197.545 617.033 196.569 617.369 195.737C617.721 194.889 618.177 194.185 618.737 193.625C619.297 193.065 619.937 192.641 620.657 192.353C621.393 192.065 622.145 191.921 622.913 191.921C624.705 191.921 626.121 192.473 627.161 193.577C628.201 194.665 628.721 196.273 628.721 198.401C628.721 198.609 628.713 198.841 628.697 199.097C628.681 199.337 628.665 199.553 628.649 199.745H620.537C620.617 200.481 620.961 201.065 621.569 201.497C622.177 201.929 622.993 202.145 624.017 202.145C624.673 202.145 625.313 202.089 625.937 201.977C626.577 201.849 627.097 201.697 627.497 201.521L627.977 204.425C627.785 204.521 627.529 204.617 627.209 204.713C626.889 204.809 626.529 204.889 626.129 204.953C625.745 205.033 625.329 205.097 624.881 205.145C624.433 205.193 623.985 205.217 623.537 205.217C622.401 205.217 621.409 205.049 620.561 204.713C619.729 204.377 619.033 203.921 618.473 203.345C617.929 202.753 617.521 202.057 617.249 201.257C616.993 200.457 616.865 199.593 616.865 198.665ZM625.265 197.297C625.249 196.993 625.193 196.697 625.097 196.409C625.017 196.121 624.881 195.865 624.689 195.641C624.513 195.417 624.281 195.233 623.993 195.089C623.721 194.945 623.377 194.873 622.961 194.873C622.561 194.873 622.217 194.945 621.929 195.089C621.641 195.217 621.401 195.393 621.209 195.617C621.017 195.841 620.865 196.105 620.753 196.409C620.657 196.697 620.585 196.993 620.537 197.297H625.265ZM636.521 205.121C635.481 205.105 634.633 204.993 633.977 204.785C633.337 204.577 632.825 204.289 632.441 203.921C632.073 203.537 631.817 203.081 631.673 202.553C631.545 202.009 631.481 201.401 631.481 200.729V186.833L635.057 186.257V200.009C635.057 200.329 635.081 200.617 635.129 200.873C635.177 201.129 635.265 201.345 635.393 201.521C635.537 201.697 635.737 201.841 635.993 201.953C636.249 202.065 636.593 202.137 637.025 202.169L636.521 205.121ZM638.475 198.665C638.475 197.545 638.643 196.569 638.979 195.737C639.331 194.889 639.787 194.185 640.347 193.625C640.907 193.065 641.547 192.641 642.267 192.353C643.003 192.065 643.755 191.921 644.523 191.921C646.315 191.921 647.731 192.473 648.771 193.577C649.811 194.665 650.331 196.273 650.331 198.401C650.331 198.609 650.323 198.841 650.307 199.097C650.291 199.337 650.275 199.553 650.259 199.745H642.147C642.227 200.481 642.571 201.065 643.179 201.497C643.787 201.929 644.603 202.145 645.627 202.145C646.283 202.145 646.923 202.089 647.547 201.977C648.187 201.849 648.707 201.697 649.107 201.521L649.587 204.425C649.395 204.521 649.139 204.617 648.819 204.713C648.499 204.809 648.139 204.889 647.739 204.953C647.355 205.033 646.939 205.097 646.491 205.145C646.043 205.193 645.595 205.217 645.147 205.217C644.011 205.217 643.019 205.049 642.171 204.713C641.339 204.377 640.643 203.921 640.083 203.345C639.539 202.753 639.131 202.057 638.859 201.257C638.603 200.457 638.475 199.593 638.475 198.665ZM646.875 197.297C646.859 196.993 646.803 196.697 646.707 196.409C646.627 196.121 646.491 195.865 646.299 195.641C646.123 195.417 645.891 195.233 645.603 195.089C645.331 194.945 644.987 194.873 644.571 194.873C644.171 194.873 643.827 194.945 643.539 195.089C643.251 195.217 643.011 195.393 642.819 195.617C642.627 195.841 642.475 196.105 642.363 196.409C642.267 196.697 642.195 196.993 642.147 197.297H646.875ZM652.97 189.113L656.546 188.537V192.257H660.842V195.233H656.546V199.673C656.546 200.425 656.674 201.025 656.93 201.473C657.202 201.921 657.738 202.145 658.538 202.145C658.922 202.145 659.314 202.113 659.714 202.049C660.13 201.969 660.506 201.865 660.842 201.737L661.346 204.521C660.914 204.697 660.434 204.849 659.906 204.977C659.378 205.105 658.73 205.169 657.962 205.169C656.986 205.169 656.178 205.041 655.538 204.785C654.898 204.513 654.386 204.145 654.002 203.681C653.618 203.201 653.346 202.625 653.186 201.953C653.042 201.281 652.97 200.537 652.97 199.721V189.113ZM662.685 198.665C662.685 197.545 662.853 196.569 663.189 195.737C663.541 194.889 663.997 194.185 664.557 193.625C665.117 193.065 665.757 192.641 666.477 192.353C667.213 192.065 667.965 191.921 668.733 191.921C670.525 191.921 671.941 192.473 672.981 193.577C674.021 194.665 674.541 196.273 674.541 198.401C674.541 198.609 674.533 198.841 674.517 199.097C674.501 199.337 674.485 199.553 674.469 199.745H666.357C666.437 200.481 666.781 201.065 667.389 201.497C667.997 201.929 668.813 202.145 669.837 202.145C670.493 202.145 671.133 202.089 671.757 201.977C672.397 201.849 672.917 201.697 673.317 201.521L673.797 204.425C673.605 204.521 673.349 204.617 673.029 204.713C672.709 204.809 672.349 204.889 671.949 204.953C671.565 205.033 671.149 205.097 670.701 205.145C670.253 205.193 669.805 205.217 669.357 205.217C668.221 205.217 667.229 205.049 666.381 204.713C665.549 204.377 664.853 203.921 664.293 203.345C663.749 202.753 663.341 202.057 663.069 201.257C662.813 200.457 662.685 199.593 662.685 198.665ZM671.085 197.297C671.069 196.993 671.013 196.697 670.917 196.409C670.837 196.121 670.701 195.865 670.509 195.641C670.333 195.417 670.101 195.233 669.813 195.089C669.541 194.945 669.197 194.873 668.781 194.873C668.381 194.873 668.037 194.945 667.749 195.089C667.461 195.217 667.221 195.393 667.029 195.617C666.837 195.841 666.685 196.105 666.573 196.409C666.477 196.697 666.405 196.993 666.357 197.297H671.085ZM694.467 204.881C693.395 202.977 692.235 201.097 690.987 199.241C689.739 197.385 688.411 195.633 687.003 193.985V204.881H683.307V188.249H686.355C686.883 188.777 687.467 189.425 688.107 190.193C688.747 190.961 689.395 191.785 690.051 192.665C690.723 193.529 691.387 194.433 692.043 195.377C692.699 196.305 693.315 197.201 693.891 198.065V188.249H697.611V204.881H694.467ZM713.015 198.545C713.015 199.537 712.871 200.449 712.583 201.281C712.295 202.097 711.879 202.801 711.335 203.393C710.791 203.969 710.135 204.417 709.367 204.737C708.615 205.057 707.767 205.217 706.823 205.217C705.895 205.217 705.047 205.057 704.279 204.737C703.527 204.417 702.879 203.969 702.335 203.393C701.791 202.801 701.367 202.097 701.063 201.281C700.759 200.449 700.607 199.537 700.607 198.545C700.607 197.553 700.759 196.649 701.063 195.833C701.383 195.017 701.815 194.321 702.359 193.745C702.919 193.169 703.575 192.721 704.327 192.401C705.095 192.081 705.927 191.921 706.823 191.921C707.735 191.921 708.567 192.081 709.319 192.401C710.087 192.721 710.743 193.169 711.287 193.745C711.831 194.321 712.255 195.017 712.559 195.833C712.863 196.649 713.015 197.553 713.015 198.545ZM709.367 198.545C709.367 197.441 709.143 196.577 708.695 195.953C708.263 195.313 707.639 194.993 706.823 194.993C706.007 194.993 705.375 195.313 704.927 195.953C704.479 196.577 704.255 197.441 704.255 198.545C704.255 199.649 704.479 200.529 704.927 201.185C705.375 201.825 706.007 202.145 706.823 202.145C707.639 202.145 708.263 201.825 708.695 201.185C709.143 200.529 709.367 199.649 709.367 198.545ZM715.665 189.113L719.241 188.537V192.257H723.537V195.233H719.241V199.673C719.241 200.425 719.369 201.025 719.625 201.473C719.897 201.921 720.433 202.145 721.233 202.145C721.617 202.145 722.009 202.113 722.409 202.049C722.825 201.969 723.201 201.865 723.537 201.737L724.041 204.521C723.609 204.697 723.129 204.849 722.601 204.977C722.073 205.105 721.425 205.169 720.657 205.169C719.681 205.169 718.873 205.041 718.233 204.785C717.593 204.513 717.081 204.145 716.697 203.681C716.313 203.201 716.041 202.625 715.881 201.953C715.737 201.281 715.665 200.537 715.665 199.721V189.113ZM725.381 198.665C725.381 197.545 725.549 196.569 725.885 195.737C726.237 194.889 726.693 194.185 727.253 193.625C727.813 193.065 728.453 192.641 729.173 192.353C729.909 192.065 730.661 191.921 731.429 191.921C733.221 191.921 734.637 192.473 735.677 193.577C736.717 194.665 737.237 196.273 737.237 198.401C737.237 198.609 737.229 198.841 737.213 199.097C737.197 199.337 737.181 199.553 737.165 199.745H729.053C729.133 200.481 729.477 201.065 730.085 201.497C730.693 201.929 731.509 202.145 732.533 202.145C733.189 202.145 733.829 202.089 734.453 201.977C735.093 201.849 735.613 201.697 736.013 201.521L736.493 204.425C736.301 204.521 736.045 204.617 735.725 204.713C735.405 204.809 735.045 204.889 734.645 204.953C734.261 205.033 733.845 205.097 733.397 205.145C732.949 205.193 732.501 205.217 732.053 205.217C730.917 205.217 729.925 205.049 729.077 204.713C728.245 204.377 727.549 203.921 726.989 203.345C726.445 202.753 726.037 202.057 725.765 201.257C725.509 200.457 725.381 199.593 725.381 198.665ZM733.781 197.297C733.765 196.993 733.709 196.697 733.613 196.409C733.533 196.121 733.397 195.865 733.205 195.641C733.029 195.417 732.797 195.233 732.509 195.089C732.237 194.945 731.893 194.873 731.477 194.873C731.077 194.873 730.733 194.945 730.445 195.089C730.157 195.217 729.917 195.393 729.725 195.617C729.533 195.841 729.381 196.105 729.269 196.409C729.173 196.697 729.101 196.993 729.053 197.297H733.781Z" fill="#F7685C"/>
<defs>
<radialGradient id="paint0_radial_1340_179" cx="0" cy="0" r="1" gradientUnits="userSpaceOnUse" gradientTransform="translate(623 583.5) rotate(89.9431) scale(583.5 623)">
<stop stop-color="white"/>
<stop offset="1" stop-color="#FF3E2D" stop-opacity="0"/>
</radialGradient>
</defs>
</svg>
