<svg xmlns="http://www.w3.org/2000/svg"  viewBox="0 0 50 50" width="50px" height="50px"><path d="M 20 3 C 14.486 3 10 7.486 10 13 L 10 33.171875 L 6.4140625 29.585938 A 2.0002 2.0002 0 0 0 4.9785156 28.980469 A 2.0002 2.0002 0 0 0 3.5859375 32.414062 L 10.585938 39.414062 A 2.0002 2.0002 0 0 0 13.414062 39.414062 L 20.414062 32.414062 A 2.0002 2.0002 0 1 0 17.585938 29.585938 L 14 33.171875 L 14 13 C 14 9.691 16.691 7 20 7 L 30.46875 7 L 30.734375 3 L 20 3 z M 37.970703 10 A 2.0002 2.0002 0 0 0 36.585938 10.585938 L 29.585938 17.585938 A 2.0002 2.0002 0 1 0 32.414062 20.414062 L 36 16.828125 L 36 37 C 36 40.309 33.309 43 30 43 L 19.509766 43 L 19.255859 47 L 30 47 C 35.514 47 40 42.514 40 37 L 40 16.828125 L 43.585938 20.414062 A 2.0002 2.0002 0 1 0 46.414062 17.585938 L 39.414062 10.585938 A 2.0002 2.0002 0 0 0 37.970703 10 z"/></svg>